<svg 
 xmlns="http://www.w3.org/2000/svg"
 xmlns:xlink="http://www.w3.org/1999/xlink"
 width="30px" height="30px">
<path fill-rule="evenodd"  fill="rgb(255, 255, 255)"
 d="M15.041,29.270 C7.125,29.270 0.707,22.852 0.707,14.933 C0.707,7.015 7.125,0.596 15.041,0.596 C22.958,0.596 29.375,7.015 29.375,14.933 C29.375,22.852 22.958,29.270 15.041,29.270 ZM15.041,2.388 C8.125,2.388 2.499,8.016 2.499,14.933 C2.499,21.850 8.125,27.506 15.041,27.506 C21.957,27.506 27.583,21.850 27.583,14.933 C27.583,8.016 21.957,2.388 15.041,2.388 ZM18.898,20.066 L14.464,15.631 C14.450,15.617 14.446,15.598 14.433,15.584 C14.258,15.420 14.145,15.191 14.145,14.933 L14.145,5.973 C14.145,5.478 14.546,5.077 15.041,5.077 C15.536,5.077 15.937,5.478 15.937,5.973 L15.937,14.569 L20.166,18.799 C20.515,19.149 20.515,19.716 20.166,20.066 C19.816,20.416 19.248,20.416 18.898,20.066 Z"/>
</svg>